<svg width="155" height="123" viewBox="0 0 155 123" fill="none" xmlns="http://www.w3.org/2000/svg">
<g clip-path="url(#clip0_2_522)">
<path d="M37.933 25.7829C41.0545 25.8653 44.1112 25.6881 47.2328 25.7705C50.3543 25.8529 53.411 25.6757 56.5325 25.758C57.3957 25.8277 57.5968 25.5048 57.6683 24.6626C57.6294 19.996 57.6555 15.5889 57.6167 10.9223C57.6881 10.0801 57.8893 9.7572 58.7524 9.82687C61.6079 9.97257 64.1324 9.92197 66.9229 9.80806C67.7861 9.87773 67.851 10.1373 67.7147 10.7199C67.6886 15.1269 67.7274 19.7936 67.7014 24.2006C67.7663 24.4602 67.8312 24.7198 67.6949 25.3024C69.9533 25.3151 72.4778 25.2645 74.7362 25.2772C75.0023 25.2139 75.1386 24.6314 75.3398 24.3084C75.2944 20.7435 75.314 17.4383 75.5347 13.8101C75.5412 12.7083 75.5477 11.6065 75.5543 10.5048C75.4245 9.98554 75.6257 9.66262 76.2227 9.7956C79.0782 9.9413 81.8688 9.82739 84.9903 9.90977C85.2564 9.84646 85.3213 10.1061 85.5874 10.0428C85.6327 13.6077 85.6132 16.9129 85.5936 20.2182C85.652 21.5796 85.7104 22.941 85.5027 24.3657C85.4313 25.2078 85.7622 25.4041 86.6254 25.4738C89.8767 26.0754 93.128 26.677 96.3794 27.2786C99.4295 28.2031 102.343 29.7102 104.855 31.8631C108.223 35.1875 109.527 39.278 109.501 43.685C109.417 46.7307 109.001 49.5801 107.392 52.1635C106.185 54.101 104.316 55.646 102.382 56.9313C102.116 56.9946 101.914 57.3176 101.382 57.4442C102.641 57.9698 103.835 58.2357 105.094 58.7613C108.871 60.3381 111.714 62.6873 113.687 66.0686C114.933 68.7977 115.445 71.9764 115.361 75.022C115.205 78.9099 114.653 82.3418 112.972 85.7673C110.889 89.8387 107.618 92.5424 103.491 94.0746C98.0975 96.1831 92.6461 96.9301 87.1299 97.4176C86.2667 97.3479 85.7995 97.7341 85.7281 98.5763C85.702 102.983 85.7408 107.65 85.7148 112.057C85.7082 113.159 85.7731 113.418 84.313 113.216C81.7885 113.266 78.933 113.121 76.4085 113.171C75.5453 113.102 75.4805 112.842 75.6168 112.259C75.5779 107.593 75.5391 102.926 75.8312 98.4557C75.7015 97.9365 75.9026 97.6136 75.3056 97.4806C73.0472 97.4679 70.7887 97.4552 68.2642 97.5058C68.3161 99.9689 68.1019 102.495 68.1537 104.958C68.2056 107.422 67.9914 109.948 68.0432 112.411C67.907 112.994 67.9718 113.253 67.1087 113.184C64.2532 113.038 61.4627 113.152 58.6721 113.266C57.8089 113.196 57.744 112.937 57.8803 112.354C57.8415 107.687 57.8027 103.021 58.0948 98.5503C58.0299 98.2907 58.2311 97.9678 58.1013 97.4486C51.5922 97.3471 45.083 97.2456 38.3077 97.2075C38.5803 96.0424 38.6517 95.2003 38.9243 94.0352C39.4046 91.4454 39.8849 88.8557 40.164 86.5888C40.2354 85.7467 40.5015 85.6834 41.2997 85.4934C43.2921 85.5695 45.5505 85.5822 47.478 85.3986C49.7364 85.4113 51.0733 83.993 50.8851 82.1124C51.0347 68.0491 51.1843 53.9858 51.003 39.7262C51.016 37.5227 49.1016 35.5028 46.5122 35.2938C43.9228 35.0847 41.3983 35.1353 39.1399 35.1226C38.6077 35.2492 38.2767 35.053 38.413 34.4704C38.4975 31.4247 38.517 28.1195 38.6014 25.0738C37.7318 26.1059 37.7318 26.1059 37.933 25.7829ZM67.5312 86.6781C67.7972 86.6148 68.1282 86.8111 68.1282 86.8111C72.6451 86.8365 77.4929 87.0582 82.0811 86.2415C85.339 85.7414 88.2659 85.0449 90.9332 83.31C95.5993 80.5494 96.1057 73.5526 92.1406 70.0952C90.291 68.3349 87.8379 67.5434 85.3849 66.7518C79.9465 65.2953 74.0993 65.5865 68.5181 65.8143C67.655 65.7446 67.7199 66.0043 67.6484 66.8464C67.7652 69.5691 67.551 72.0956 67.6677 74.8183C67.5119 78.7062 67.6221 82.5307 67.5312 86.6781ZM83.263 54.8793C83.7952 54.7527 85.0607 54.1765 86.0601 53.6637C90.8561 51.4223 92.0893 45.0777 88.3253 41.2974C86.4109 39.2775 83.6268 38.2896 80.9725 37.821C76.8581 37.1497 72.9383 37.2573 68.6875 37.1685C67.8244 37.0988 67.6232 37.4218 67.5518 38.2639C67.5841 44.0323 67.5515 49.5411 67.3177 55.3729C67.1814 55.9554 67.5124 56.1517 68.1095 56.2847C69.2387 56.2911 70.1018 56.3607 71.231 56.3671C75.352 55.9366 79.0057 55.8924 83.263 54.8793Z" fill="white"/>
<path d="M0.732178 61.5025L3.25506 61.7209L76.4631 61.7209L77.204 61.5025L57.1172 51.5003L0.732178 61.5025Z" fill="white"/>
<path d="M0.732178 61.5024L57.117 71.5045L77.2041 61.5024L41.6712 61.5024L0.732178 61.5024Z" fill="white"/>
<path d="M154.287 61.5025L151.744 61.7209L77.9509 61.7209L77.2041 61.5025L97.4515 51.5003L154.287 61.5025Z" fill="white"/>
<path d="M154.287 61.5024L97.4517 71.5045L77.204 61.5024L113.021 61.5024L154.287 61.5024Z" fill="white"/>
</g>
<defs>
<clipPath id="clip0_2_522">
<rect width="122.818" height="155" fill="white" transform="matrix(0 -1 1 0 0 122.909)"/>
</clipPath>
</defs>
</svg>
